<svg xmlns="http://www.w3.org/2000/svg" xmlns:xlink="http://www.w3.org/1999/xlink" viewBox="0 0 500 375"><defs><style>.cls-1{fill:url(#linear-gradient);}.cls-2{fill:#e5e5e5;}</style><linearGradient id="linear-gradient" x1="166.22" y1="451.13" x2="342.86" y2="-12.21" gradientUnits="userSpaceOnUse"><stop offset="0" stop-color="#09c6f9"/><stop offset="1" stop-color="#045de9"/></linearGradient></defs><title>Asset 1</title><g id="Layer_2" data-name="Layer 2"><g id="Layer_1-2" data-name="Layer 1"><path class="cls-1" d="M159.56,0A107.68,107.68,0,0,1,255,58.12a177.53,177.53,0,0,1,72.49-15.34c95,0,172.48,74.11,172.48,166.11S422.5,375,327.52,375H126C56.67,375,0,320.92,0,253.61c0-43.77,24-82,59.79-103.3a109.55,109.55,0,0,1-8.11-41.48C51.68,49.33,99.37,0,159.56,0Z"/><path class="cls-2" d="M86.57,108.83c0-41.89,33.29-74.74,73-74.74,28.27,0,53.22,16.58,65.31,41.3a168.37,168.37,0,0,0-51.93,59.74q-1.26,2.43-2.42,4.9c-1.56-.56-3.13-1.1-4.71-1.6a131.31,131.31,0,0,0-74-1.69A75.91,75.91,0,0,1,86.57,108.83Z"/></g></g></svg>