<svg xmlns="http://www.w3.org/2000/svg" xmlns:xlink="http://www.w3.org/1999/xlink" viewBox="0 0 358 358"><defs><style>.cls-1{fill:url(#linear-gradient);}</style><linearGradient id="linear-gradient" x1="69.27" y1="508.87" x2="287.39" y2="79.77" gradientTransform="matrix(1, 0, 0, -1, 0, 472)" gradientUnits="userSpaceOnUse"><stop offset="0" stop-color="#09c6f9"/><stop offset="1" stop-color="#045de9"/></linearGradient></defs><title>Asset 2</title><g id="Layer_2" data-name="Layer 2"><g id="Layer_1-2" data-name="Layer 1"><path class="cls-1" d="M119.92,6.84a258.57,258.57,0,0,1,118.16,0A151.75,151.75,0,0,1,351.16,119.92a258.57,258.57,0,0,1,0,118.16A151.74,151.74,0,0,1,238.08,351.16a258.57,258.57,0,0,1-118.16,0A151.75,151.75,0,0,1,6.84,238.08a258.57,258.57,0,0,1,0-118.16A151.77,151.77,0,0,1,119.92,6.84Zm88.71,132.63a7.62,7.62,0,0,1,9.91,9.9L203,188.17A26.71,26.71,0,0,1,188.17,203l-38.8,15.51a7.62,7.62,0,0,1-9.9-9.9L155,169.83A26.68,26.68,0,0,1,169.84,155Zm31.12,18.39c9.95-24.88-14.73-49.55-39.6-39.61l-38.8,15.52a49.56,49.56,0,0,0-27.58,27.58l-15.51,38.79c-10,24.88,14.73,49.55,39.6,39.61l38.79-15.52a49.53,49.53,0,0,0,27.58-27.58Z"/></g></g></svg>