<svg xmlns="http://www.w3.org/2000/svg" xmlns:xlink="http://www.w3.org/1999/xlink" viewBox="0 0 308 308"><defs><style>.cls-1{fill:url(#linear-gradient);}.cls-2{fill:url(#linear-gradient-2);}.cls-3{fill:url(#linear-gradient-3);}.cls-4{fill:url(#linear-gradient-4);}</style><linearGradient id="linear-gradient" x1="25.12" y1="494.19" x2="212.78" y2="125.03" gradientTransform="matrix(1, 0, 0, -1, 0, 480)" gradientUnits="userSpaceOnUse"><stop offset="0" stop-color="#09c6f9"/><stop offset="1" stop-color="#045de9"/></linearGradient><linearGradient id="linear-gradient-2" x1="-46.16" y1="457.96" x2="141.49" y2="88.79" xlink:href="#linear-gradient"/><linearGradient id="linear-gradient-3" x1="165.35" y1="565.47" x2="353.01" y2="196.31" xlink:href="#linear-gradient"/><linearGradient id="linear-gradient-4" x1="94.07" y1="529.24" x2="281.72" y2="160.07" xlink:href="#linear-gradient"/></defs><title>Asset 4</title><g id="Layer_2" data-name="Layer 2"><g id="Layer_1-2" data-name="Layer 1"><path class="cls-1" d="M88.83,2.67a101,101,0,0,0-46.13,0,53.73,53.73,0,0,0-40,40,101,101,0,0,0,0,46.13,53.74,53.74,0,0,0,40,40,101.24,101.24,0,0,0,46.13,0,53.75,53.75,0,0,0,40-40,101.24,101.24,0,0,0,0-46.13A53.74,53.74,0,0,0,88.83,2.67Z"/><path class="cls-2" d="M88.83,179.13a101.24,101.24,0,0,0-46.13,0,53.74,53.74,0,0,0-40,40,101,101,0,0,0,0,46.13,53.73,53.73,0,0,0,40,40,101,101,0,0,0,46.13,0,53.74,53.74,0,0,0,40-40,101.24,101.24,0,0,0,0-46.13A53.75,53.75,0,0,0,88.83,179.13Z"/><path class="cls-3" d="M265.3,2.67a101,101,0,0,0-46.13,0,53.74,53.74,0,0,0-40,40,101.24,101.24,0,0,0,0,46.13,53.75,53.75,0,0,0,40,40,101.24,101.24,0,0,0,46.13,0,53.74,53.74,0,0,0,40-40,101,101,0,0,0,0-46.13A53.73,53.73,0,0,0,265.3,2.67Z"/><path class="cls-4" d="M265.3,179.13a101.24,101.24,0,0,0-46.13,0,53.75,53.75,0,0,0-40,40,101.24,101.24,0,0,0,0,46.13,53.74,53.74,0,0,0,40,40,101,101,0,0,0,46.13,0,53.73,53.73,0,0,0,40-40,101,101,0,0,0,0-46.13A53.74,53.74,0,0,0,265.3,179.13Z"/></g></g></svg>