<svg xmlns="http://www.w3.org/2000/svg" xmlns:xlink="http://www.w3.org/1999/xlink" viewBox="0 0 666 666"><defs><style>.cls-1{fill:#fca311;}.cls-2{fill:url(#linear-gradient);}.cls-3{fill:#fff;}</style><linearGradient id="linear-gradient" x1="128.86" y1="718.58" x2="534.64" y2="-79.68" gradientTransform="matrix(1, 0, 0, -1, 0, 650)" gradientUnits="userSpaceOnUse"><stop offset="0" stop-color="#09c6f9"/><stop offset="1" stop-color="#045de9"/></linearGradient></defs><title>Asset 1</title><g id="Layer_2" data-name="Layer 2"><g id="Layer_1-2" data-name="Layer 1"><circle class="cls-1" cx="333" cy="333" r="333"/><circle class="cls-2" cx="333" cy="333" r="333"/><path class="cls-3" d="M183.48,416.25V241.42H296.37v25.73H215.45v49h65.44v25.23H215.45v74.92Zm137.55,0V241.42h70.18q27.23,0,41.46,12.74,14.49,12.5,14.49,32.22,0,16.49-9,26.47a43.84,43.84,0,0,1-21.48,13.24,43.22,43.22,0,0,1,34.46,42.46q0,20.73-15,34.21t-42.46,13.49Zm32-101.4h33.47q13.48,0,20.73-6.24t7.24-17.73q0-11-7.24-17.24-7-6.5-21.23-6.49H353Zm0,75.43h35.72q14.23,0,22-6.5,8-6.73,8-18.73,0-12.24-8.25-19.23t-22.22-7H353Z"/></g></g></svg>