<svg xmlns="http://www.w3.org/2000/svg" xmlns:xlink="http://www.w3.org/1999/xlink" viewBox="0 0 764.32 764.32"><defs><style>.cls-1{fill:#fca311;}.cls-2{fill:url(#linear-gradient);}.cls-3{fill:#fff;}</style><linearGradient id="linear-gradient" x1="147.88" y1="848.71" x2="613.57" y2="-67.39" gradientTransform="matrix(1, 0, 0, -1, 0, 770)" gradientUnits="userSpaceOnUse"><stop offset="0" stop-color="#09c6f9"/><stop offset="1" stop-color="#045de9"/></linearGradient></defs><title>Asset 2</title><g id="Layer_2" data-name="Layer 2"><g id="Layer_1-2" data-name="Layer 1"><circle class="cls-1" cx="382.16" cy="382.16" r="382.16"/><circle class="cls-2" cx="382.16" cy="382.16" r="382.16"/><path class="cls-3" d="M234.45,477.7V277.06h36.69V477.7Zm163.28,3.44q-28.38,0-49.58-12.9a87.84,87.84,0,0,1-33-35.83q-11.76-23.22-11.76-53.88,0-31,12-54.46a90,90,0,0,1,34.68-37q22.65-13.49,53.6-13.48,35.25,0,58.47,16.92t30.09,46.71h-41a39.73,39.73,0,0,0-16.63-21.78q-12-8-30.95-8-30.09,0-46.43,19.2Q341,345.57,341,378.81t16,51.6q16.34,18,44.14,18,27.22,0,41-14.62,14-14.89,16.91-39H408.34V367.35H496V477.7H462.22l-2.87-26.37A67.19,67.19,0,0,1,435,473.4Q420.38,481.14,397.73,481.14Z"/></g></g></svg>