<svg xmlns="http://www.w3.org/2000/svg" xmlns:xlink="http://www.w3.org/1999/xlink" viewBox="0 0 985.95 761.25"><defs><style>.cls-1{fill:none;}.cls-2{clip-path:url(#clip-path);}.cls-3{fill:#66c5ff;}.cls-12,.cls-4,.cls-6{fill:#fff;}.cls-4,.cls-5{opacity:0.6;}.cls-12,.cls-4{isolation:isolate;}.cls-7{fill:#24a7ff;}.cls-8{fill:#3bb0ff;}.cls-9{fill:#3d4959;}.cls-10{fill:#d6e0ea;}.cls-11{fill:#ededed;}.cls-12{opacity:0.2;}.cls-13{fill:#f3f9ff;}.cls-14{fill:#425160;}.cls-15{fill:#41566d;}.cls-16{fill:#e4eff7;}.cls-17{fill:#dde9f2;}.cls-18{fill:#55738e;}</style><clipPath id="clip-path" transform="translate(-0.05)"><rect class="cls-1" width="986" height="761.25"/></clipPath></defs><title>Asset 1</title><g id="Layer_2" data-name="Layer 2"><g id="Layer_1-2" data-name="Layer 1"><g class="cls-2"><path class="cls-3" d="M158.35,198.34A70.43,70.43,0,0,1,265,145.42a65.9,65.9,0,0,1,103.07,44.33,70.06,70.06,0,0,1-15.83,138.3H183.8a67.34,67.34,0,0,1-25.4-129.71Z" transform="translate(-0.05)"/><path class="cls-4" d="M329.93,251.85a59.7,59.7,0,0,0,0-24.33l-9.52-1.35a47.69,47.69,0,0,0-4.63-11.2l5.76-7.71a59,59,0,0,0-17.18-17.19l-7.68,5.72a49.57,49.57,0,0,0-11.21-4.67l-1.33-9.5a59.85,59.85,0,0,0-24.36,0l-1.35,9.5a49.46,49.46,0,0,0-11.22,4.67l-7.7-5.77a59.74,59.74,0,0,0-17.18,17.19l5.77,7.73a47.9,47.9,0,0,0-4.64,11.2l-9.52,1.35a59.75,59.75,0,0,0,0,24.34l9.52,1.37a47.81,47.81,0,0,0,4.66,11.18l-5.79,7.75a59.74,59.74,0,0,0,17.18,17.19l7.7-5.79a49.37,49.37,0,0,0,11.22,4.64l1.35,9.55a59.75,59.75,0,0,0,24.34,0l1.35-9.55a49.48,49.48,0,0,0,11.21-4.64l7.71,5.79a59.74,59.74,0,0,0,17.18-17.19l-5.79-7.73a48.65,48.65,0,0,0,4.66-11.2Zm-58,16.55a28.58,28.58,0,1,1,10.94-2.18A28.55,28.55,0,0,1,271.9,268.4Z" transform="translate(-0.05)"/><path class="cls-3" d="M542.25,132A70.44,70.44,0,0,1,648.9,79.07,65.92,65.92,0,0,1,752,123.42a70.06,70.06,0,0,1-15.86,138.3H567.67A67.36,67.36,0,0,1,542.25,132Z" transform="translate(-0.05)"/><g class="cls-5"><path class="cls-6" d="M623.21,191.66c0-9.45,5-14.73,11.82-14.73s11.83,5.38,11.83,14.73S641.81,206.4,635,206.4,623.21,201.12,623.21,191.66Zm19.51,0c0-7.36-3.17-11.15-7.69-11.15s-7.7,3.74-7.7,11.15,3.16,11.15,7.7,11.15,7.66-3.73,7.66-11.15Z" transform="translate(-0.05)"/><path class="cls-6" d="M650.84,191.66c0-9.45,5-14.73,11.85-14.73s11.8,5.38,11.8,14.73-5,14.74-11.8,14.74S650.84,201.12,650.84,191.66Zm19.51,0c0-7.36-3.14-11.15-7.66-11.15S655,184.25,655,191.66s3.15,11.15,7.71,11.15S670.35,199.08,670.35,191.66Z" transform="translate(-0.05)"/><path class="cls-6" d="M687.35,177.15v29h-4.1V180.76H676.7v-3.61Z" transform="translate(-0.05)"/><path class="cls-6" d="M693.71,191.66c0-9.45,5-14.73,11.85-14.73s11.81,5.38,11.81,14.73-5.06,14.74-11.81,14.74S693.71,201.12,693.71,191.66Zm19.51,0c0-7.36-3.14-11.15-7.66-11.15s-7.7,3.74-7.7,11.15,3.14,11.15,7.7,11.15S713.22,199.08,713.22,191.66Z" transform="translate(-0.05)"/><path class="cls-6" d="M730.22,177.15v29h-4.09V180.76H719.6v-3.61Z" transform="translate(-0.05)"/><path class="cls-6" d="M736.55,191.66c0-9.45,5.06-14.73,11.86-14.73s11.8,5.38,11.8,14.73-5.05,14.74-11.8,14.74S736.55,201.12,736.55,191.66Zm19.51,0c0-7.36-3.14-11.15-7.65-11.15s-7.71,3.74-7.71,11.15,3.14,11.15,7.71,11.15S756.06,199.08,756.06,191.66Z" transform="translate(-0.05)"/><path class="cls-6" d="M773.07,177.15v29H769V180.76h-6.55v-3.61Z" transform="translate(-0.05)"/></g><path class="cls-7" d="M322.92,509.06a74.94,74.94,0,0,0-52.35-71.46,70.53,70.53,0,0,0-109.1-49.88A70.58,70.58,0,0,0,52.34,437.6,74.92,74.92,0,0,0,74.87,584H249.69a74.91,74.91,0,0,0,73.23-74.89Z" transform="translate(-0.05)"/><path class="cls-8" d="M160.83,387.43A70.56,70.56,0,0,0,52.34,437.7,74.92,74.92,0,0,0,74.87,584.05h52.49Z" transform="translate(-0.05)"/><path class="cls-9" d="M343.75,547.46h-191v14.22h191Z" transform="translate(-0.05)"/><path class="cls-9" d="M343.75,478.53h-191v14.22h191Z" transform="translate(-0.05)"/><path class="cls-10" d="M352.29,558.17H143.38a9.85,9.85,0,0,0-9.84,9.85v44.22a9.85,9.85,0,0,0,9.84,9.85H352.29a9.85,9.85,0,0,0,9.84-9.85V568A9.85,9.85,0,0,0,352.29,558.17Z" transform="translate(-0.05)"/><path class="cls-11" d="M228.41,558.17,218,622H143.38a9.82,9.82,0,0,1-9.81-9.83V568a9.82,9.82,0,0,1,9.81-9.82Z" transform="translate(-0.05)"/><path class="cls-9" d="M348.07,608V572.24H147.61V608Z" transform="translate(-0.05)"/><path class="cls-7" d="M332.27,590.09a6.22,6.22,0,0,1-1,3.43,6.16,6.16,0,0,1-6.32,2.64,6,6,0,0,1-3.16-1.68,6.18,6.18,0,0,1-1.35-6.72,6.27,6.27,0,0,1,2.27-2.77,6.17,6.17,0,0,1,9.59,5.1Z" transform="translate(-0.05)"/><path class="cls-7" d="M305.67,590.09a5.29,5.29,0,0,1-.89,2.94,5.29,5.29,0,0,1-5.42,2.24,5.28,5.28,0,1,1,6.31-5.18Z" transform="translate(-0.05)"/><path class="cls-6" d="M280,590.09a5.27,5.27,0,0,1-9,3.73,5.17,5.17,0,0,1-1.44-2.7,5.23,5.23,0,0,1,.3-3,5.28,5.28,0,0,1,10.15,2Z" transform="translate(-0.05)"/><path class="cls-7" d="M254.23,590.09a5.27,5.27,0,0,1-9,3.73,5.17,5.17,0,0,1-1.44-2.7,5.28,5.28,0,1,1,10.45-1Z" transform="translate(-0.05)"/><path class="cls-6" d="M228.51,590.09a5.27,5.27,0,0,1-6.3,5.18,5.31,5.31,0,0,1-4.15-4.15,5.27,5.27,0,0,1,2.25-5.42,5.27,5.27,0,0,1,8.2,4.39Z" transform="translate(-0.05)"/><path class="cls-10" d="M352.29,488.16H143.38a9.85,9.85,0,0,0-9.84,9.84v44.23a9.85,9.85,0,0,0,9.84,9.85H352.29a9.85,9.85,0,0,0,9.84-9.85V498A9.85,9.85,0,0,0,352.29,488.16Z" transform="translate(-0.05)"/><path class="cls-11" d="M239.8,488.16,229.42,552h-86a9.8,9.8,0,0,1-9.81-9.82V498a9.82,9.82,0,0,1,9.81-9.82Z" transform="translate(-0.05)"/><path class="cls-9" d="M348.07,538V502.23H147.61V538Z" transform="translate(-0.05)"/><path class="cls-10" d="M352.29,419.23H143.38a9.85,9.85,0,0,0-9.84,9.85V473.3a9.85,9.85,0,0,0,9.84,9.85H352.29a9.85,9.85,0,0,0,9.84-9.85V429.08A9.85,9.85,0,0,0,352.29,419.23Z" transform="translate(-0.05)"/><path class="cls-11" d="M251,419.23l-10.41,63.85H143.38a9.82,9.82,0,0,1-9.81-9.83v-44.2a9.8,9.8,0,0,1,9.81-9.82Z" transform="translate(-0.05)"/><path class="cls-9" d="M348.09,469.1V433.32H147.63V469.1Z" transform="translate(-0.05)"/><path class="cls-7" d="M326.11,526.27a6.17,6.17,0,1,0-6.16-6.16A6.16,6.16,0,0,0,326.11,526.27Z" transform="translate(-0.05)"/><path class="cls-7" d="M305.67,520.11a5.29,5.29,0,0,1-.89,2.93,5.29,5.29,0,0,1-8.12.8,5.34,5.34,0,0,1-1.45-2.7,5.28,5.28,0,0,1,8.91-4.77,5.3,5.3,0,0,1,1.55,3.74Z" transform="translate(-0.05)"/><path class="cls-6" d="M280,520.11a5.29,5.29,0,0,1-.89,2.93,5.29,5.29,0,0,1-5.42,2.24,5.28,5.28,0,1,1,4.76-8.91,5.3,5.3,0,0,1,1.55,3.74Z" transform="translate(-0.05)"/><path class="cls-7" d="M254.23,520.11a5.29,5.29,0,0,1-.89,2.93,5.29,5.29,0,0,1-5.42,2.24,5.27,5.27,0,0,1-3.84-7.19,5.28,5.28,0,0,1,10.15,2Z" transform="translate(-0.05)"/><path class="cls-6" d="M228.51,520.11a5.29,5.29,0,0,1-.89,2.93,5.28,5.28,0,0,1-8.11.8,5.28,5.28,0,1,1,9-3.73Z" transform="translate(-0.05)"/><path class="cls-7" d="M332.27,451.2a6.16,6.16,0,0,1-10.52,4.36,6.19,6.19,0,0,1-1.33-6.72,6.18,6.18,0,0,1,2.26-2.77,6.25,6.25,0,0,1,3.43-1,6.16,6.16,0,0,1,6.16,6.16Z" transform="translate(-0.05)"/><path class="cls-6" d="M305.67,451.2a5.27,5.27,0,0,1-9,3.73,5.34,5.34,0,0,1-1.45-2.7,5.28,5.28,0,1,1,10.46-1Z" transform="translate(-0.05)"/><path class="cls-6" d="M280,451.2a5.29,5.29,0,1,1-1.55-3.73A5.26,5.26,0,0,1,280,451.2Z" transform="translate(-0.05)"/><path class="cls-7" d="M254.23,451.2a5.28,5.28,0,1,1-10.15-2,5.35,5.35,0,0,1,1.94-2.37,5.28,5.28,0,0,1,8.21,4.39Z" transform="translate(-0.05)"/><path class="cls-7" d="M228.51,451.2a5.27,5.27,0,0,1-6.3,5.18,5.18,5.18,0,0,1-2.7-1.45,5.28,5.28,0,1,1,9-3.73Z" transform="translate(-0.05)"/><path class="cls-7" d="M627.62,524.9a59.17,59.17,0,0,0-41.32-56.49,55.7,55.7,0,0,0-86.16-39.29A55.69,55.69,0,0,0,414,468.41,59.16,59.16,0,0,0,431.77,584H569.83a59.06,59.06,0,0,0,57.79-59.1Z" transform="translate(-0.05)"/><path class="cls-8" d="M499.65,428.78A55.69,55.69,0,0,0,414,468.46a59.16,59.16,0,0,0,17.76,115.59h41.6Z" transform="translate(-0.05)"/><path class="cls-9" d="M596.07,649.44h-191v14.22h191Z" transform="translate(-0.05)"/><path class="cls-9" d="M596.07,580.54h-191v14.22h191Z" transform="translate(-0.05)"/><path class="cls-10" d="M604.61,660.15H395.7a9.85,9.85,0,0,0-9.84,9.85v44.23a9.85,9.85,0,0,0,9.84,9.84H604.61a9.85,9.85,0,0,0,9.84-9.84V670A9.85,9.85,0,0,0,604.61,660.15Z" transform="translate(-0.05)"/><path class="cls-11" d="M480.73,660.15,470.33,724H395.72a9.82,9.82,0,0,1-9.81-9.82V670a9.82,9.82,0,0,1,9.81-9.82Z" transform="translate(-0.05)"/><path class="cls-9" d="M600.36,710V674.25H399.9V710Z" transform="translate(-0.05)"/><path class="cls-7" d="M584.56,692.12a6.16,6.16,0,1,1-6.16-6.26,6.1,6.1,0,0,1,2.38.48,6.15,6.15,0,0,1,3.78,5.78Z" transform="translate(-0.05)"/><path class="cls-7" d="M558,692.12A5.27,5.27,0,0,1,554.7,697a5.28,5.28,0,0,1-6.89-6.9,5.28,5.28,0,0,1,10.15,2Z" transform="translate(-0.05)"/><path class="cls-6" d="M532.26,692.12A5.28,5.28,0,0,1,529,697a5.23,5.23,0,0,1-3,.3,5.17,5.17,0,0,1-2.7-1.44,5.28,5.28,0,0,1,.8-8.13,5.27,5.27,0,0,1,8.2,4.39Z" transform="translate(-0.05)"/><path class="cls-7" d="M506.52,692.12a5.29,5.29,0,0,1-.89,2.94,5.29,5.29,0,0,1-8.12.8,5.28,5.28,0,1,1,9-3.74Z" transform="translate(-0.05)"/><path class="cls-6" d="M480.73,692.12a5.29,5.29,0,0,1-.89,2.94,5.29,5.29,0,0,1-8.12.8,5.28,5.28,0,1,1,9-3.74Z" transform="translate(-0.05)"/><path class="cls-10" d="M604.61,590.14H395.7a9.85,9.85,0,0,0-9.84,9.85v44.22a9.85,9.85,0,0,0,9.84,9.85H604.61a9.85,9.85,0,0,0,9.84-9.85V600A9.85,9.85,0,0,0,604.61,590.14Z" transform="translate(-0.05)"/><path class="cls-11" d="M492.09,590.09l-10.38,63.85h-86a9.83,9.83,0,0,1-9.82-9.82V599.91a9.83,9.83,0,0,1,9.82-9.82Z" transform="translate(-0.05)"/><path class="cls-9" d="M600.39,640V604.21H399.92V640Z" transform="translate(-0.05)"/><path class="cls-10" d="M604.61,521.24H395.7a9.85,9.85,0,0,0-9.84,9.84v44.23a9.85,9.85,0,0,0,9.84,9.85H604.61a9.85,9.85,0,0,0,9.84-9.85V531.08A9.85,9.85,0,0,0,604.61,521.24Z" transform="translate(-0.05)"/><path class="cls-11" d="M503.33,521.33,493,585.18H395.7a9.83,9.83,0,0,1-9.82-9.82v-44.2a9.83,9.83,0,0,1,9.82-9.83Z" transform="translate(-0.05)"/><path class="cls-9" d="M600.36,571.08V535.31H399.9v35.77Z" transform="translate(-0.05)"/><path class="cls-7" d="M584.56,622a6.14,6.14,0,0,1-1,3.42,6.24,6.24,0,0,1-2.76,2.27,6.16,6.16,0,1,1-2.36-11.86,6.36,6.36,0,0,1,2.36.46,6.17,6.17,0,0,1,2,1.34,6,6,0,0,1,1.33,2A6.22,6.22,0,0,1,584.56,622Z" transform="translate(-0.05)"/><path class="cls-7" d="M558,622a5.27,5.27,0,0,1-3.26,4.87,5.28,5.28,0,0,1-5-9.26A5.28,5.28,0,0,1,558,622Z" transform="translate(-0.05)"/><path class="cls-6" d="M532.26,622a5.28,5.28,0,0,1-3.25,4.87,5.23,5.23,0,0,1-3,.3,5.17,5.17,0,0,1-2.7-1.44,5.26,5.26,0,0,1-1.15-5.75,5.27,5.27,0,0,1,10.15,2Z" transform="translate(-0.05)"/><path class="cls-7" d="M506.52,622a5.27,5.27,0,0,1-3.26,4.87,5.29,5.29,0,0,1-5.75-1.14,5.28,5.28,0,1,1,9-3.73Z" transform="translate(-0.05)"/><path class="cls-6" d="M480.73,622a5.27,5.27,0,0,1-3.26,4.87,5.29,5.29,0,0,1-5.75-1.14,5.28,5.28,0,1,1,9-3.73Z" transform="translate(-0.05)"/><path class="cls-7" d="M584.56,553.26a6.16,6.16,0,1,1-9.58-5.13,6.2,6.2,0,0,1,3.42-1,6.18,6.18,0,0,1,6.16,6.17Z" transform="translate(-0.05)"/><path class="cls-6" d="M558,553.26a5.29,5.29,0,0,1-.89,2.93,5.32,5.32,0,0,1-5.42,2.25A5.34,5.34,0,0,1,549,557a5.28,5.28,0,0,1,7.46-7.47,5.3,5.3,0,0,1,1.55,3.74Z" transform="translate(-0.05)"/><path class="cls-6" d="M532.26,553.26a5.29,5.29,0,0,1-.89,2.93,5.29,5.29,0,0,1-5.41,2.25,5.26,5.26,0,0,1-2.7-1.45,5.26,5.26,0,0,1-1.15-5.75,5.27,5.27,0,0,1,10.15,2Z" transform="translate(-0.05)"/><path class="cls-7" d="M506.52,553.26a5.29,5.29,0,0,1-.89,2.93,5.31,5.31,0,0,1-5.41,2.25,5.29,5.29,0,1,1,6.3-5.18Z" transform="translate(-0.05)"/><path class="cls-7" d="M480.73,553.26a5.29,5.29,0,0,1-.89,2.93,5.31,5.31,0,0,1-5.41,2.25,5.29,5.29,0,1,1,6.3-5.18Z" transform="translate(-0.05)"/><path class="cls-7" d="M986,509.06a74.94,74.94,0,0,0-52.34-71.46,70.57,70.57,0,0,0-109.13-49.88,70.56,70.56,0,0,0-109.1,49.88A74.92,74.92,0,0,0,738,584H912.77A74.89,74.89,0,0,0,986,509.06Z" transform="translate(-0.05)"/><path class="cls-8" d="M823.92,387.43A70.55,70.55,0,0,0,715.43,437.7,74.92,74.92,0,0,0,738,584.05h52.59Z" transform="translate(-0.05)"/><path class="cls-9" d="M848.36,547.46h-191v14.22h191Z" transform="translate(-0.05)"/><path class="cls-9" d="M848.36,478.53h-191v14.22h191Z" transform="translate(-0.05)"/><path class="cls-10" d="M856.9,558.17H648a9.85,9.85,0,0,0-9.84,9.85v44.22a9.85,9.85,0,0,0,9.84,9.85H856.9a9.85,9.85,0,0,0,9.84-9.85V568A9.85,9.85,0,0,0,856.9,558.17Z" transform="translate(-0.05)"/><path class="cls-11" d="M733,558.17,722.59,622H648a9.82,9.82,0,0,1-9.81-9.83V568a9.82,9.82,0,0,1,9.81-9.82Z" transform="translate(-0.05)"/><path class="cls-9" d="M852.68,608V572.24H652.21V608Z" transform="translate(-0.05)"/><path class="cls-7" d="M836.85,590.09a6.16,6.16,0,1,1-1.81-4.34A6.14,6.14,0,0,1,836.85,590.09Z" transform="translate(-0.05)"/><path class="cls-7" d="M805,595.42a5.28,5.28,0,1,0-5.28-5.28A5.27,5.27,0,0,0,805,595.42Z" transform="translate(-0.05)"/><path class="cls-6" d="M784.53,590.09a5.27,5.27,0,1,1-1.54-3.73,5.29,5.29,0,0,1,1.54,3.73Z" transform="translate(-0.05)"/><path class="cls-7" d="M758.81,590.09a5.27,5.27,0,0,1-6.3,5.18,5.18,5.18,0,0,1-2.7-1.45,5.26,5.26,0,0,1-1.45-2.7,5.27,5.27,0,0,1,2.25-5.42,5.27,5.27,0,0,1,8.2,4.39Z" transform="translate(-0.05)"/><path class="cls-6" d="M733.09,590.09a5.28,5.28,0,0,1-.88,2.94,5.29,5.29,0,0,1-5.42,2.24,5.31,5.31,0,0,1-4.15-4.15,5.4,5.4,0,0,1,.3-3,5.28,5.28,0,0,1,10.15,2Z" transform="translate(-0.05)"/><path class="cls-10" d="M856.9,488.16H648a9.85,9.85,0,0,0-9.84,9.84v44.23a9.85,9.85,0,0,0,9.84,9.85H856.9a9.85,9.85,0,0,0,9.84-9.85V498A9.85,9.85,0,0,0,856.9,488.16Z" transform="translate(-0.05)"/><path class="cls-11" d="M744.41,488.16,734,552H648.11a9.8,9.8,0,0,1-9.81-9.82V498a9.82,9.82,0,0,1,9.81-9.82Z" transform="translate(-0.05)"/><path class="cls-9" d="M852.68,538V502.23H652.21V538Z" transform="translate(-0.05)"/><path class="cls-10" d="M856.9,419.23H648a9.85,9.85,0,0,0-9.84,9.85V473.3a9.85,9.85,0,0,0,9.84,9.85H856.9a9.85,9.85,0,0,0,9.84-9.85V429.08A9.85,9.85,0,0,0,856.9,419.23Z" transform="translate(-0.05)"/><path class="cls-11" d="M755.57,419.23l-10.4,63.85H648a9.82,9.82,0,0,1-9.81-9.83v-44.2a9.8,9.8,0,0,1,9.81-9.82Z" transform="translate(-0.05)"/><path class="cls-9" d="M852.68,469.08V433.3H652.21v35.78Z" transform="translate(-0.05)"/><path class="cls-7" d="M836.85,520.11a6.14,6.14,0,0,1-1,3.42,6.24,6.24,0,0,1-2.76,2.27,6.16,6.16,0,1,1,3.8-5.69Z" transform="translate(-0.05)"/><path class="cls-7" d="M810.25,520.11a5.29,5.29,0,0,1-.89,2.93,5.28,5.28,0,1,1-7.32-7.32,5.28,5.28,0,0,1,8.21,4.39Z" transform="translate(-0.05)"/><path class="cls-6" d="M784.53,520.11a5.29,5.29,0,0,1-.89,2.93,5.29,5.29,0,0,1-5.42,2.24,5.25,5.25,0,0,1-2.7-1.44,5.28,5.28,0,0,1-1.14-5.75,5.27,5.27,0,0,1,4.87-3.26,5.26,5.26,0,0,1,5.28,5.28Z" transform="translate(-0.05)"/><path class="cls-7" d="M758.81,520.11a5.29,5.29,0,0,1-.89,2.93,5.28,5.28,0,0,1-8.11.8,5.26,5.26,0,0,1-1.15-5.75,5.27,5.27,0,0,1,10.15,2Z" transform="translate(-0.05)"/><path class="cls-6" d="M733.09,520.11a5.27,5.27,0,0,1-9,3.73,5.26,5.26,0,0,1-1.15-5.75,5.27,5.27,0,0,1,10.15,2Z" transform="translate(-0.05)"/><path class="cls-7" d="M836.85,451.2a6.12,6.12,0,0,1-1,3.42,6.2,6.2,0,0,1-2.76,2.28,6.29,6.29,0,0,1-3.56.35,6.15,6.15,0,0,1-4.84-4.85,6.12,6.12,0,0,1,.35-3.56,6.13,6.13,0,0,1,5.69-3.8,6,6,0,0,1,2.36.46,6.14,6.14,0,0,1,2,1.33,6.32,6.32,0,0,1,1.34,2A6.16,6.16,0,0,1,836.85,451.2Z" transform="translate(-0.05)"/><path class="cls-6" d="M810.25,451.2a5.29,5.29,0,1,1-1.55-3.73,5.26,5.26,0,0,1,1.55,3.73Z" transform="translate(-0.05)"/><path class="cls-6" d="M784.53,451.2a5.27,5.27,0,0,1-9,3.73,5.28,5.28,0,1,1,9-3.73Z" transform="translate(-0.05)"/><path class="cls-7" d="M758.81,451.2a5.27,5.27,0,0,1-6.3,5.18,5.18,5.18,0,0,1-2.7-1.45,5.27,5.27,0,0,1,.8-8.12,5.27,5.27,0,0,1,8.2,4.39Z" transform="translate(-0.05)"/><path class="cls-7" d="M733.09,451.2a5.25,5.25,0,0,1-.88,2.93,5.28,5.28,0,0,1-9.57-1.9,5.4,5.4,0,0,1,.3-3.05,5.28,5.28,0,0,1,10.15,2Z" transform="translate(-0.05)"/><path class="cls-8" d="M333.39,0H666.91a21.63,21.63,0,0,1,21.62,21.63V221.57a25.76,25.76,0,0,1-25.77,25.79H337.54a25.8,25.8,0,0,1-25.89-25.79V21.63A21.62,21.62,0,0,1,333.39,0Z" transform="translate(-0.05)"/><path class="cls-12" d="M496.85,0H333.49a21.62,21.62,0,0,0-20,13.35,21.79,21.79,0,0,0-1.64,8.28V221.57a25.78,25.78,0,0,0,25.77,25.76H447.11Z" transform="translate(-0.05)"/><path class="cls-10" d="M311.65,40.71H688.53V266.44a21.61,21.61,0,0,1-21.62,21.63H333.39a21.64,21.64,0,0,1-21.74-21.63Z" transform="translate(-0.05)"/><path class="cls-13" d="M678.22,40.71V266.44a11.47,11.47,0,0,1-3.34,8.09,11.43,11.43,0,0,1-8.09,3.35H333.37a11.43,11.43,0,0,1-11.44-11.44V40.71Z" transform="translate(-0.05)"/><path class="cls-14" d="M567.06,207v-22.1l-15.21-2.16a48.72,48.72,0,0,0-5.77-14l9.18-12.28-15.64-15.76-12.26,9.21a48,48,0,0,0-14-5.77L511.21,129H489.12l-2.18,15.15a47.81,47.81,0,0,0-14,5.77l-12.27-9.21L445,156.45l9.2,12.28a46,46,0,0,0-5.77,14l-15.14,2.16V207l15.14,2.18a47.53,47.53,0,0,0,5.77,14.07L445,235.52l15.73,15.67L473,242a45.38,45.38,0,0,0,14,5.84L489.12,263h22.09l2.18-15.16a45.54,45.54,0,0,0,14-5.84l12.26,9.21,15.64-15.67-9.18-12.28a50.54,50.54,0,0,0,5.77-14Zm-66.92,22.45a6.66,6.66,0,1,0,0-.08Z" transform="translate(-0.05)"/><path class="cls-9" d="M500,229.38a33.52,33.52,0,0,1,0-67V129H489l-2.19,15.15a47.81,47.81,0,0,0-14,5.77l-12.27-9.21L444.88,156.4l9.2,12.28a46,46,0,0,0-5.77,14l-15.14,2.16v22.1l15.14,2.18a47.42,47.42,0,0,0,5.77,14.07l-9.2,12.28,15.73,15.67,12.27-9.21a45.38,45.38,0,0,0,14,5.84L489,262.93h11Z" transform="translate(-0.05)"/><path class="cls-15" d="M649.34,117.55V101.74l-10.87-1.55a33.44,33.44,0,0,0-4.1-10l6.56-8.69L629.78,70.31,621,76.86a34.23,34.23,0,0,0-10-4.12L609.51,62h-15.9l-1.54,10.78a34.4,34.4,0,0,0-10,4.12l-8.68-6.55L562.2,81.53l6.55,8.69a32.51,32.51,0,0,0-4.12,10l-10.8,1.55v15.81l10.8,1.55a33.4,33.4,0,0,0,4.12,10l-6.55,8.72L573.42,149l8.68-6.55a32.38,32.38,0,0,0,10,4.17l1.54,10.81h15.81L611,146.6a32.22,32.22,0,0,0,10-4.17l8.77,6.55,11.14-11.14-6.56-8.77a34.75,34.75,0,0,0,4.1-10Zm-47.7,16a23.87,23.87,0,1,1,9.13-1.81,23.86,23.86,0,0,1-9.13,1.81Z" transform="translate(-0.05)"/><path class="cls-10" d="M453.69,53.17h-119v9.89h119Z" transform="translate(-0.05)"/><path class="cls-10" d="M453.69,76.54h-119v9.9h119Z" transform="translate(-0.05)"/><path class="cls-10" d="M453.69,99.92h-119v9.9h119Z" transform="translate(-0.05)"/><path class="cls-10" d="M428,123.3H334.72v9.89H428Z" transform="translate(-0.05)"/><path class="cls-10" d="M428,146.68H334.72v9.89H428Z" transform="translate(-0.05)"/><path class="cls-6" d="M599.35,20.73a8.32,8.32,0,0,1-9.92,8.19A8.32,8.32,0,0,1,591,12.43a8.26,8.26,0,0,1,3.18.62,8.3,8.3,0,0,1,4.5,4.49,8.29,8.29,0,0,1,.63,3.19Z" transform="translate(-0.05)"/><path class="cls-6" d="M633.24,20.73a8.3,8.3,0,1,1-2.43-5.87A8.32,8.32,0,0,1,633.24,20.73Z" transform="translate(-0.05)"/><path class="cls-6" d="M667.23,20.73a8.33,8.33,0,0,1-1.4,4.61,8.29,8.29,0,0,1-12.76,1.26,8.3,8.3,0,0,1,5.87-14.17,8.3,8.3,0,0,1,8.29,8.3Z" transform="translate(-0.05)"/><path class="cls-7" d="M580.61,252.42a6.63,6.63,0,0,1-13.13,1.29,6.65,6.65,0,0,1,2.82-6.81,6.63,6.63,0,0,1,10.31,5.52Z" transform="translate(-0.05)"/><path class="cls-7" d="M609.27,252.42a6.69,6.69,0,0,1-1.11,3.7,6.57,6.57,0,0,1-3,2.46,6.65,6.65,0,1,1,4.09-6.16Z" transform="translate(-0.05)"/><path class="cls-7" d="M640.63,252.42a9.35,9.35,0,1,1-2.74-6.62,9.35,9.35,0,0,1,2.74,6.62Z" transform="translate(-0.05)"/><path class="cls-7" d="M666.57,252.42a6.69,6.69,0,0,1-1.11,3.7,6.57,6.57,0,0,1-3,2.46,6.65,6.65,0,1,1,4.09-6.16Z" transform="translate(-0.05)"/><path class="cls-7" d="M347,252.42a6.61,6.61,0,0,1-1.11,3.7,6.54,6.54,0,0,1-3,2.46,6.68,6.68,0,0,1-3.85.39,6.68,6.68,0,0,1-5.24-5.22,6.76,6.76,0,0,1,.38-3.85,6.57,6.57,0,0,1,2.45-3A6.64,6.64,0,0,1,347,252.42Z" transform="translate(-0.05)"/><path class="cls-7" d="M375.65,252.42a6.62,6.62,0,1,1-12.75-2.54,6.73,6.73,0,0,1,2.45-3,6.63,6.63,0,0,1,10.3,5.52Z" transform="translate(-0.05)"/><path class="cls-7" d="M404.29,252.42a6.63,6.63,0,0,1-13.13,1.29A6.65,6.65,0,0,1,394,246.9a6.63,6.63,0,0,1,10.31,5.52Z" transform="translate(-0.05)"/><path class="cls-7" d="M433,252.42a6.65,6.65,0,0,1-4.09,6.16,6.65,6.65,0,1,1-2.53-12.79,6.62,6.62,0,0,1,6.62,6.63Z" transform="translate(-0.05)"/><path class="cls-16" d="M287.9,64.26V46.07l-12.49-1.79a39.67,39.67,0,0,0-4.71-11.47l7.53-10L265.42,9.9l-10.11,7.54a38.49,38.49,0,0,0-11.46-4.74L242.08.27H223.9L222.11,12.7a39,39,0,0,0-11.46,4.74l-10-7.54L187.75,22.84l7.54,10a37.87,37.87,0,0,0-4.74,11.46l-12.42,1.8V64.31l12.42,1.77a38.32,38.32,0,0,0,4.74,11.54l-7.54,10,12.88,12.85,10-7.54a38.13,38.13,0,0,0,11.46,4.79l1.79,12.42h18.18l1.77-12.42A37.63,37.63,0,0,0,255.31,93l10.11,7.54,12.81-12.85L270.7,77.55a40.47,40.47,0,0,0,4.71-11.47ZM233,77.94a22.66,22.66,0,1,1,8.7-1.71,22.76,22.76,0,0,1-8.7,1.71Z" transform="translate(-0.05)"/><path class="cls-17" d="M853.88,315.65V299.88l-10.8-1.54a33.81,33.81,0,0,0-4.1-9.83l6.53-8.69L834.4,268.65l-8.74,6.53a34,34,0,0,0-9.82-4.1l-1.54-10.76H798.54L797,271.08a34.31,34.31,0,0,0-9.82,4.1l-8.66-6.53-11.19,11.17,6.55,8.69a32.29,32.29,0,0,0-4.1,9.83L759,299.88v15.77l10.77,1.55a33.44,33.44,0,0,0,4.1,10l-6.55,8.69L778.52,347l8.66-6.55A32.54,32.54,0,0,0,797,344.6l1.54,10.76H814.3l1.54-10.76a32.54,32.54,0,0,0,9.82-4.17L834.4,347l11.11-11.12-6.5-8.74a35.67,35.67,0,0,0,4.1-9.83Zm-47.53,11.83a19.63,19.63,0,1,1,13.88-5.75A19.68,19.68,0,0,1,806.35,327.48Z" transform="translate(-0.05)"/><path class="cls-16" d="M717,676.65V666.22l-7.14-1a21.7,21.7,0,0,0-2.72-6.56l4.34-5.75-7.36-7.36-5.79,4.34a21.7,21.7,0,0,0-6.56-2.72l-1-7.12h-10.4l-1,7.12a21.81,21.81,0,0,0-6.58,2.72L667,645.52l-7.36,7.36,4.35,5.75a21.37,21.37,0,0,0-2.73,6.56l-7.11,1v10.41l7.11,1a22.26,22.26,0,0,0,2.73,6.61L659.67,690l7.36,7.37,5.72-4.35a22,22,0,0,0,6.58,2.78l1,7.12h10.4l1-7.12a21.24,21.24,0,0,0,6.56-2.78L704,697.4,711.4,690l-4.34-5.77a23.12,23.12,0,0,0,2.72-6.58Zm-31.43,7.86a13,13,0,0,1-12.08-8,13.08,13.08,0,0,1,2.82-14.25,13.07,13.07,0,0,1,21.3,14.26,13,13,0,0,1-2.82,4.23,12.94,12.94,0,0,1-9.22,3.81Z" transform="translate(-0.05)"/><path class="cls-17" d="M409.57,749.93c0-7.19,3.85-11.3,9-11.3s9,4.11,9,11.3-3.85,11.32-9,11.32S409.57,757.08,409.57,749.93Zm14.87,0c0-5.65-2.46-8.5-5.84-8.5s-5.87,2.85-5.87,8.5,2.46,8.5,5.87,8.5,5.81-2.83,5.81-8.5Z" transform="translate(-0.05)"/><path class="cls-17" d="M430.62,749.93c0-7.19,3.85-11.3,9-11.3s9,4.11,9,11.3-3.85,11.32-9,11.32S430.62,757.08,430.62,749.93Zm14.72,0c0-5.65-2.45-8.5-5.81-8.5s-5.89,2.85-5.89,8.5,2.45,8.5,5.89,8.5,5.94-2.83,5.94-8.5Z" transform="translate(-0.05)"/><path class="cls-17" d="M458.42,738.88V761h-3.11V741.6H450.4v-2.74Z" transform="translate(-0.05)"/><path class="cls-17" d="M463.26,749.93c0-7.19,3.85-11.3,9-11.3s9,4.11,9,11.3-3.85,11.32-9,11.32S463.26,757.08,463.26,749.93Zm14.87,0c0-5.65-2.46-8.5-5.84-8.5s-5.87,2.85-5.87,8.5,2.46,8.5,5.87,8.5S478.13,755.6,478.13,749.93Z" transform="translate(-0.05)"/><path class="cls-17" d="M491.09,738.88V761h-3V741.6h-4.91v-2.74Z" transform="translate(-0.05)"/><path class="cls-17" d="M495.92,749.93c0-7.19,3.85-11.3,9-11.3s9,4.11,9,11.3-3.85,11.32-9,11.32S495.92,757.08,495.92,749.93Zm14.87,0c0-5.65-2.45-8.5-5.84-8.5s-5.89,2.85-5.89,8.5,2.46,8.5,5.89,8.5S510.79,755.6,510.79,749.93Z" transform="translate(-0.05)"/><path class="cls-17" d="M523.72,738.88V761h-3.11V741.6H515.7v-2.74Z" transform="translate(-0.05)"/><path class="cls-17" d="M73.37,353.86c0-9.06,4.91-14.22,11.34-14.22S96,344.8,96,353.86s-4.9,14.19-11.31,14.19S73.37,362.9,73.37,353.86Zm18.68,0c0-7.1-3-10.68-7.36-10.68s-7.37,3.58-7.37,10.68,3,10.68,7.37,10.68S92,361,92,353.86Z" transform="translate(-0.05)"/><path class="cls-17" d="M99.78,353.86c0-9.06,4.91-14.22,11.36-14.22s11.29,5.16,11.29,14.22-4.91,14.19-11.29,14.19S99.78,362.9,99.78,353.86Zm18.67,0c0-7.1-3-10.68-7.36-10.68s-7.36,3.58-7.36,10.68,3,10.68,7.36,10.68S118.45,361,118.45,353.86Z" transform="translate(-0.05)"/><path class="cls-17" d="M134.72,340v27.77H130.8V343.42h-6.26V340Z" transform="translate(-0.05)"/><path class="cls-17" d="M140.81,353.86c0-9.06,4.91-14.22,11.34-14.22s11.31,5.16,11.31,14.22-4.91,14.19-11.31,14.19S140.81,362.9,140.81,353.86Zm18.67,0c0-7.1-3-10.68-7.36-10.68s-7.36,3.58-7.36,10.68,3,10.68,7.36,10.68S159.48,361,159.48,353.86Z" transform="translate(-0.05)"/><path class="cls-17" d="M175.75,340v27.77h-3.92V343.42h-6.26V340Z" transform="translate(-0.05)"/><path class="cls-17" d="M190.45,340v27.77h-3.93V343.42h-6.28V340Z" transform="translate(-0.05)"/><path class="cls-17" d="M196.51,353.86c0-9.06,4.91-14.22,11.34-14.22s11.31,5.16,11.31,14.22-4.9,14.19-11.31,14.19S196.51,362.9,196.51,353.86Zm18.68,0c0-7.1-3-10.68-7.37-10.68s-7.36,3.58-7.36,10.68,3,10.68,7.36,10.68,7.37-3.58,7.37-10.68Z" transform="translate(-0.05)"/><path class="cls-17" d="M223.06,353.86c0-9.06,4.91-14.22,11.34-14.22s11.29,5.16,11.29,14.22-4.91,14.19-11.29,14.19S223.06,362.9,223.06,353.86Zm18.68,0c0-7.1-3-10.68-7.36-10.68S227,346.76,227,353.86s3,10.68,7.36,10.68,7.29-3.58,7.29-10.68Z" transform="translate(-0.05)"/><path class="cls-17" d="M249.45,353.86c0-9.06,4.9-14.22,11.33-14.22s11.31,5.16,11.31,14.22-4.9,14.19-11.31,14.19S249.45,362.9,249.45,353.86Zm18.67,0c0-7.1-3-10.68-7.36-10.68s-7.36,3.58-7.36,10.68,3,10.68,7.36,10.68S268.12,361,268.12,353.86Z" transform="translate(-0.05)"/><path class="cls-17" d="M284.41,340v27.77h-3.92V343.42h-6.26V340Z" transform="translate(-0.05)"/><path class="cls-17" d="M290.47,353.86c0-9.06,4.91-14.22,11.34-14.22s11.32,5.16,11.32,14.22-4.91,14.19-11.32,14.19S290.47,362.9,290.47,353.86Zm18.68,0c0-7.1-3-10.68-7.36-10.68s-7.36,3.58-7.36,10.68,3,10.68,7.36,10.68S309.15,361,309.15,353.86Z" transform="translate(-0.05)"/><path class="cls-17" d="M325.42,340v27.77h-3.93V343.42h-6.25V340Z" transform="translate(-0.05)"/><path class="cls-17" d="M510.91,386.52c0-9.06,4.91-14.22,11.34-14.22s11.31,5.16,11.31,14.22-4.9,14.19-11.31,14.19S510.91,395.56,510.91,386.52Zm18.68,0c0-7.12-3-10.68-7.36-10.68s-7.37,3.56-7.37,10.68,3,10.66,7.37,10.66S529.59,393.64,529.59,386.52Z" transform="translate(-0.05)"/><path class="cls-17" d="M545.86,372.62v27.77h-3.93V376.08h-6.26v-3.46Z" transform="translate(-0.05)"/><path class="cls-17" d="M560.53,372.62v27.77h-3.92V376.08h-6.26v-3.46Z" transform="translate(-0.05)"/><path class="cls-17" d="M566.62,386.52c0-9.06,4.91-14.22,11.34-14.22s11.31,5.16,11.31,14.22-4.91,14.19-11.31,14.19S566.62,395.56,566.62,386.52Zm18.67,0c0-7.12-3-10.68-7.36-10.68s-7.36,3.56-7.36,10.68,3,10.66,7.36,10.66S585.29,393.64,585.29,386.52Z" transform="translate(-0.05)"/><path class="cls-17" d="M593.07,386.52c0-9.06,4.91-14.22,11.36-14.22s11.29,5.16,11.29,14.22-4.91,14.19-11.29,14.19S593.07,395.56,593.07,386.52Zm18.7,0c0-7.12-3-10.68-7.36-10.68s-7.36,3.56-7.36,10.68,3,10.66,7.36,10.66S611.77,393.64,611.77,386.52Z" transform="translate(-0.05)"/><path class="cls-17" d="M619.55,386.52c0-9.06,4.91-14.22,11.34-14.22s11.31,5.16,11.31,14.22-4.91,14.19-11.31,14.19S619.55,395.56,619.55,386.52Zm18.67,0c0-7.12-3-10.68-7.36-10.68s-7.36,3.56-7.36,10.68,3,10.66,7.36,10.66S638.22,393.64,638.22,386.52Z" transform="translate(-0.05)"/><path class="cls-17" d="M715.82,53.17a6.64,6.64,0,0,1-4.09,6.12,6.6,6.6,0,0,1-7.22-1.44,6.65,6.65,0,0,1-1.44-7.22,6.63,6.63,0,0,1,12.75,2.54Z" transform="translate(-0.05)"/><path class="cls-17" d="M744.48,53.17a6.65,6.65,0,0,1-4.09,6.16,6.65,6.65,0,1,1-2.53-12.8,6.64,6.64,0,0,1,6.62,6.64Z" transform="translate(-0.05)"/><path class="cls-17" d="M775.87,53.17a9.38,9.38,0,1,1-18-3.59,9.38,9.38,0,0,1,18,3.59Z" transform="translate(-0.05)"/><path class="cls-17" d="M801.78,53.17a6.65,6.65,0,0,1-4.09,6.16,6.65,6.65,0,1,1-2.53-12.8,6.64,6.64,0,0,1,6.62,6.64Z" transform="translate(-0.05)"/><path class="cls-17" d="M320.73,649.44a6.65,6.65,0,0,1,11.35-4.73,6.59,6.59,0,0,1,1.82,3.4,6.64,6.64,0,0,1-2.82,6.84,6.64,6.64,0,0,1-8.4-.81,6.65,6.65,0,0,1-1.95-4.7Z" transform="translate(-0.05)"/><path class="cls-17" d="M292.1,649.44a6.61,6.61,0,0,1,4.08-6.12,6.63,6.63,0,0,1,9,4.83,6.62,6.62,0,1,1-13.12,1.29Z" transform="translate(-0.05)"/><path class="cls-17" d="M260.71,649.44a9.37,9.37,0,1,1,14.58,7.8,9.29,9.29,0,0,1-5.21,1.59,9.37,9.37,0,0,1-9.37-9.39Z" transform="translate(-0.05)"/><path class="cls-17" d="M234.79,649.44a6.7,6.7,0,0,1,1.12-3.7,6.52,6.52,0,0,1,3-2.46,6.65,6.65,0,0,1,8.69,8.7,6.65,6.65,0,0,1-12.79-2.54Z" transform="translate(-0.05)"/><path class="cls-18" d="M663.48,406.36H652.21V413h11.27Z" transform="translate(-0.05)"/><path class="cls-18" d="M663.48,393.86H652.21v6.66h11.27Z" transform="translate(-0.05)"/><path class="cls-18" d="M663.48,381.36H652.21V388h11.27Z" transform="translate(-0.05)"/><path class="cls-18" d="M663.48,368.86H652.21v6.66h11.27Z" transform="translate(-0.05)"/><path class="cls-18" d="M663.48,356.36H652.21V363h11.27Z" transform="translate(-0.05)"/><path class="cls-18" d="M663.48,343.86H652.21v6.66h11.27Z" transform="translate(-0.05)"/><path class="cls-18" d="M663.48,331.37H652.21V338h11.27Z" transform="translate(-0.05)"/><path class="cls-18" d="M663.48,318.87H652.21v6.65h11.27Z" transform="translate(-0.05)"/><path class="cls-18" d="M663.48,306.37H652.21V313h11.27Z" transform="translate(-0.05)"/><path class="cls-18" d="M663.48,293.87H652.21v6.65h11.27Z" transform="translate(-0.05)"/><path class="cls-18" d="M505.79,406.36H494.52V413h11.27Z" transform="translate(-0.05)"/><path class="cls-18" d="M505.79,393.86H494.52v6.66h11.27Z" transform="translate(-0.05)"/><path class="cls-18" d="M505.79,381.36H494.52V388h11.27Z" transform="translate(-0.05)"/><path class="cls-18" d="M505.79,368.86H494.52v6.66h11.27Z" transform="translate(-0.05)"/><path class="cls-18" d="M505.79,356.36H494.52V363h11.27Z" transform="translate(-0.05)"/><path class="cls-18" d="M505.79,343.86H494.52v6.66h11.27Z" transform="translate(-0.05)"/><path class="cls-18" d="M505.79,331.37H494.52V338h11.27Z" transform="translate(-0.05)"/><path class="cls-18" d="M505.79,318.87H494.52v6.65h11.27Z" transform="translate(-0.05)"/><path class="cls-18" d="M505.79,306.37H494.52V313h11.27Z" transform="translate(-0.05)"/><path class="cls-18" d="M505.79,293.87H494.52v6.65h11.27Z" transform="translate(-0.05)"/><path class="cls-18" d="M348.07,406.36H336.81V413h11.26Z" transform="translate(-0.05)"/><path class="cls-18" d="M348.07,393.86H336.81v6.66h11.26Z" transform="translate(-0.05)"/><path class="cls-18" d="M348.07,381.36H336.81V388h11.26Z" transform="translate(-0.05)"/><path class="cls-18" d="M348.07,368.86H336.81v6.66h11.26Z" transform="translate(-0.05)"/><path class="cls-18" d="M348.07,356.36H336.81V363h11.26Z" transform="translate(-0.05)"/><path class="cls-18" d="M348.07,343.86H336.81v6.66h11.26Z" transform="translate(-0.05)"/><path class="cls-18" d="M348.07,331.37H336.81V338h11.26Z" transform="translate(-0.05)"/><path class="cls-18" d="M348.07,318.87H336.81v6.65h11.26Z" transform="translate(-0.05)"/><path class="cls-18" d="M348.07,306.37H336.81V313h11.26Z" transform="translate(-0.05)"/><path class="cls-18" d="M348.07,293.87H336.81v6.65h11.26Z" transform="translate(-0.05)"/></g></g></g></svg>