<svg xmlns="http://www.w3.org/2000/svg" xmlns:xlink="http://www.w3.org/1999/xlink" viewBox="0 0 381.64 485"><defs><style>.cls-1{fill:url(#linear-gradient);}.cls-2{fill:#e5e5e5;}</style><linearGradient id="linear-gradient" x1="16.34" y1="451.43" x2="347.72" y2="-61.55" gradientUnits="userSpaceOnUse"><stop offset="0" stop-color="#09c6f9"/><stop offset="1" stop-color="#045de9"/></linearGradient></defs><title>Asset 3</title><g id="Layer_2" data-name="Layer 2"><g id="Layer_1-2" data-name="Layer 1"><path class="cls-1" d="M261.74,353.69l-11.11,2.45v14.78a58.18,58.18,0,0,1-38.17,54.89V465.6a19.09,19.09,0,1,1-38.17,0V425.81a58.18,58.18,0,0,1-38.16-54.89v-13.7q-2.49-.5-5-1.05l-11.26-2.48C65,341.59,21.49,298.93,7.65,243.53a256.69,256.69,0,0,1,0-124.4C21.49,63.75,65,21.08,119.9,9l11.26-2.48a277.61,277.61,0,0,1,119.33,0L261.74,9C316.68,21.08,360.16,63.75,374,119.14a256.65,256.65,0,0,1,0,124.39C360.16,298.93,316.68,341.59,261.74,353.69Z"/><path class="cls-2" d="M212.46,361.83q-3.32.26-6.64.43a276.38,276.38,0,0,1-31.53-.09v8.75a19.09,19.09,0,1,0,38.17,0Z"/><path class="cls-2" d="M213.09,104.28a15.68,15.68,0,0,1,2.39,21.81l-31,39.45H229a15.27,15.27,0,0,1,13.77,8.8,15.75,15.75,0,0,1-1.85,16.42L190,255.43a15.11,15.11,0,0,1-21.46,2.42A15.7,15.7,0,0,1,166.19,236l31.05-39.45H152.67a15.25,15.25,0,0,1-13.76-8.79,15.73,15.73,0,0,1,1.84-16.42l50.88-64.66A15.09,15.09,0,0,1,213.09,104.28Z"/></g></g></svg>