<svg xmlns="http://www.w3.org/2000/svg" xmlns:xlink="http://www.w3.org/1999/xlink" viewBox="0 0 379 379"><defs><style>.cls-1{fill:url(#linear-gradient);}.cls-2{fill:url(#linear-gradient-2);}.cls-3{fill:url(#linear-gradient-3);}.cls-4{fill:url(#linear-gradient-4);}</style><linearGradient id="linear-gradient" x1="49.93" y1="619.13" x2="280.84" y2="164.86" gradientTransform="matrix(1, 0, 0, -1, 0, 592)" gradientUnits="userSpaceOnUse"><stop offset="0" stop-color="#09c6f9"/><stop offset="1" stop-color="#045de9"/></linearGradient><linearGradient id="linear-gradient-2" x1="157.31" y1="673.72" x2="388.22" y2="219.44" xlink:href="#linear-gradient"/><linearGradient id="linear-gradient-3" x1="96.74" y1="642.93" x2="327.65" y2="188.65" xlink:href="#linear-gradient"/><linearGradient id="linear-gradient-4" x1="-10.64" y1="588.34" x2="220.27" y2="134.07" xlink:href="#linear-gradient"/></defs><title>Asset 5</title><g id="Layer_2" data-name="Layer 2"><g id="Layer_1-2" data-name="Layer 1"><path class="cls-1" d="M174.38,0V113.75H10.88A160.8,160.8,0,0,1,127,6.84,272.42,272.42,0,0,1,174.38,0Z"/><path class="cls-2" d="M204.62,0V235h170.6a275.06,275.06,0,0,0-3.46-108.13A160.82,160.82,0,0,0,252,6.84,272.28,272.28,0,0,0,204.62,0Z"/><path class="cls-3" d="M368.12,265.25H204.62V379A272.28,272.28,0,0,0,252,372.16,160.78,160.78,0,0,0,368.12,265.25Z"/><path class="cls-4" d="M174.38,379V144.05H3.78A275.06,275.06,0,0,0,7.24,252.18,160.82,160.82,0,0,0,127,372.16,272.42,272.42,0,0,0,174.38,379Z"/></g></g></svg>